<?xml version="1.0" ?><svg id="Layer_1" style="enable-background:new 0 0 96 96;" version="1.1" viewBox="0 0 96 96" xml:space="preserve" xmlns="http://www.w3.org/2000/svg" xmlns:xlink="http://www.w3.org/1999/xlink"><style type="text/css">
	.st0{fill:#FFFFFF;}
</style><g><path d="M93,16V5.4C93,4.1,91.9,3,90.6,3H50.4c-1.3,0-3.6,0-4.9,0H5.4C4.1,3,3,4.1,3,5.4V16H93z"/><path d="M50,80.3l43-12.5V20H3v47.8l43,12.5C47,80.6,49,80.6,50,80.3z M53,56h-4V42h4V56z M55,42.3l2,0.1l0.3-3.4H61v3h3v3h-3v5.7   c0,1.5,0.6,2.2,1.7,2.2c0.4,0,0.9-0.1,1.3-0.3l0.6,2.9C63.8,55.7,63,56,61.6,56c-3.5,0-4.6-2.1-4.6-5.2V45h-2V42.3z M51.2,36   c1.4,0,2.4,0.8,2.4,2.1c0,1.2-1,2.1-2.4,2.1c-1.4,0-2.4-0.9-2.4-2.1C48.8,36.8,49.8,36,51.2,36z M31.5,46.9c0-5.9,4-9.3,8.9-9.3   c2.6,0,4.6,1.1,5.8,2.3L44,42.5c-0.9-0.8-1.9-1.4-3.5-1.4c-2.8,0-4.8,2.2-4.8,5.7c0,3.7,1.8,5.8,5.2,5.8c0.8,0,1-0.2,2-0.5v-3h-3   v-3h7v7.8C45,55,43.3,56,40.7,56C35.7,56,31.5,52.9,31.5,46.9z"/><path d="M51.1,84.2c-0.9,0.3-2,0.4-3.1,0.4c-1.1,0-2.2-0.1-3.1-0.4L3,72v6.6c0,1.3,1.1,2.7,2.4,3.1l40.3,10.7   c1.3,0.3,3.4,0.3,4.7,0l40.3-10.7c1.3-0.3,2.4-1.7,2.4-3.1V72L51.1,84.2z"/></g></svg>